<?xml version="1.0" encoding="UTF-8"?>
<svg width="504px" height="504px" viewBox="0 0 504 504" version="1.1" xmlns="http://www.w3.org/2000/svg" xmlns:xlink="http://www.w3.org/1999/xlink">
    <!-- Generator: Sketch 40.3 (33839) - http://www.bohemiancoding.com/sketch -->
    <title>halfman 2</title>
    <desc>Created with Sketch.</desc>
    <defs></defs>
    <g id="Page-1" stroke="none" stroke-width="1" fill="none" fill-rule="evenodd">
        <g id="halfman-2" fill="rgb(112,201,248)">
            <g id="Page-1">
                <g id="halfman-2">
                    <g id="Page-1">
                        <g id="halfman">
                            <g id="Page-1">
                                <g id="man">
                                    <g id="BACKGROUND">
                                        <path d="M299.171,206.284 C299.027,206.398 297.968,206.735 296.291,207.192 C311.322,195.587 323.418,178.401 330.715,157.833 C329.866,160.255 327.224,169.348 337.612,164.995 C349.534,159.993 351.508,103.504 349.939,93.52 C348.363,83.541 337.612,96.693 337.612,96.693 C331.742,42.593 295.294,0.867 251.18,0.867 C207.524,0.867 171.349,41.718 164.918,95.051 C161.935,91.869 155.277,85.823 154.063,93.52 C152.492,103.501 154.468,159.99 166.387,164.995 C171.508,167.141 173.449,166.001 174.016,164.028 C181.21,181.346 191.902,195.93 204.87,206.311 C203.786,205.458 199.393,271.487 184.579,292.659 C169.759,313.827 131.649,302.543 59.67,323.003 C-12.311,343.467 1.805,423.549 1.805,462.363 C1.805,481.71354 127.234421,503.949174 251.9985,504 C377.426161,504.051096 502.192,481.814462 502.192,462.36 C502.192,423.546 516.308,343.461 444.327,322.999 C372.348,302.54 334.241,313.825 319.421,292.655 C304.601,271.483 300.211,205.454 299.171,206.284 Z M330.934,157.218 L330.931,157.261 C330.931,157.261 330.854,157.45 330.74,157.754 C330.807,157.582 330.871,157.398 330.934,157.218 L330.934,157.218 L330.934,157.218 L330.934,157.218 L330.934,157.218 Z" id="Shape"></path>
                                    </g>
                                </g>
                            </g>
                        </g>
                    </g>
                </g>
            </g>
        </g>
    </g>
</svg>
