<?xml version="1.0" encoding="UTF-8"?>
<svg width="1100px" height="1074px" viewBox="0 0 1100 1074" version="1.1" xmlns="http://www.w3.org/2000/svg" xmlns:xlink="http://www.w3.org/1999/xlink">
    <!-- Generator: Sketch 40.3 (33839) - http://www.bohemiancoding.com/sketch -->
    <title>man</title>
    <desc>Created with Sketch.</desc>
    <defs></defs>
    <g id="Page-1" stroke="none" stroke-width="1" fill="none" fill-rule="evenodd">
        <g id="man" fill="rgb(112,201,248)">
            <g id="BACKGROUND">
                <path d="M1067.113,931.948 C1062.069,930.522 1093.254,931.557 1098.815,927.548 C1104.389,923.538 1089.503,920.173 1070.863,916.29 C1052.231,912.403 1048.731,908.136 1053.265,904.384 C1057.795,900.634 1064.135,885.21 1061.678,876.411 C1059.214,867.61 1052.616,861.011 1052.228,869.425 C1051.837,877.837 1051.577,892.073 1041.616,892.587 C1031.65,893.107 1023.501,891.036 1015.737,881.46 C1007.967,871.886 1017.288,859.716 1022.462,860.235 C1027.639,860.749 1047.055,864.38 1047.442,864.505 C1047.833,864.636 1060.767,860.235 1050.161,853.247 C1039.546,846.261 1025.183,839.143 1003.959,840.435 C982.734,841.728 964.103,852.085 957.757,848.07 L956.148,845.205 C956.148,843.086 896.17,741.471 849.595,674.432 C803.017,607.399 800.192,543.166 800.192,504.36 C800.192,465.546 814.308,343.461 742.327,322.999 C670.348,302.54 632.241,313.825 617.421,292.655 C602.601,271.483 598.211,205.454 597.171,206.284 C597.027,206.398 595.968,206.735 594.291,207.192 C609.322,195.587 621.418,178.401 628.715,157.833 C627.866,160.255 625.224,169.348 635.612,164.995 C647.534,159.993 649.508,103.504 647.939,93.52 C646.363,83.541 635.612,96.693 635.612,96.693 L635.603,96.75 C629.742,42.593 593.294,0.867 549.18,0.867 C505.524,0.867 469.349,41.718 462.918,95.051 C459.935,91.869 453.277,85.823 452.063,93.52 C450.492,103.501 452.468,159.99 464.387,164.995 C469.508,167.141 471.449,166.001 472.016,164.028 C479.21,181.346 489.902,195.93 502.87,206.311 C502.861,206.309 502.835,206.299 502.82,206.286 C501.786,205.458 497.393,271.487 482.579,292.659 C467.759,313.827 429.649,302.543 357.67,323.003 C285.689,343.467 299.805,465.549 299.805,504.363 C299.805,543.167 296.983,607.401 250.405,674.436 C203.833,741.475 143.846,843.088 143.846,845.209 L142.237,848.07 C135.897,852.082 117.257,841.728 96.035,840.435 C74.813,839.138 60.448,846.261 49.842,853.247 C39.227,860.233 52.164,864.636 52.555,864.505 C52.943,864.38 72.359,860.749 77.535,860.234 C82.712,859.716 92.026,871.886 84.263,881.461 C76.496,891.037 68.347,893.107 58.384,892.588 C48.417,892.074 48.156,877.838 47.769,869.426 C47.378,861.012 40.783,867.612 38.319,876.412 C35.859,885.211 42.205,900.635 46.735,904.385 C51.266,908.137 47.769,912.405 29.134,916.291 C10.499,920.174 -4.384,923.539 1.188,927.549 C6.747,931.559 37.938,930.522 32.887,931.949 C27.842,933.369 5.709,934.015 0.791,939.324 C-4.125,944.629 21.505,944.24 21.505,944.24 C21.505,944.24 35.347,939.974 20.459,950.066 C5.58,960.158 63.863,943.535 63.863,943.535 C102.891,936.437 166.754,898.115 169.596,895.277 C172.436,892.443 180.238,883.92 225.65,832.127 C271.069,780.318 343.453,688.779 364.739,622.08 C386.022,555.375 389.576,524.854 389.576,530.533 C389.576,536.215 420.8,622.08 425.762,663.238 C430.731,704.386 374.659,813.656 359.759,834.941 C344.863,856.228 185.908,893.129 138.364,914.418 C90.817,935.705 70.238,1010.928 97.914,1041.443 C125.585,1071.953 222.098,1081.884 313.636,1064.853 C405.175,1047.824 550.007,1021.57 550.007,1021.57 C550.007,1021.57 694.833,1047.822 786.375,1064.853 C877.913,1081.884 974.417,1071.953 1002.094,1041.443 C1029.767,1010.927 1009.192,935.705 961.644,914.418 C914.1,893.129 755.149,856.229 740.247,834.941 C725.347,813.658 669.275,704.386 674.25,663.238 C679.209,622.08 710.43,536.215 710.43,530.533 C710.43,524.854 713.987,555.375 735.273,622.08 C756.559,688.779 828.94,780.318 874.356,832.127 C919.771,883.922 927.571,892.443 930.416,895.277 C933.253,898.111 997.118,936.437 1036.146,943.535 C1036.146,943.535 1094.429,960.158 1079.542,950.066 C1064.663,939.974 1078.508,944.24 1078.508,944.24 C1078.508,944.24 1104.129,944.629 1099.216,939.324 C1094.29,934.015 1072.157,933.368 1067.113,931.948 L1067.113,931.948 Z M628.934,157.218 L628.931,157.261 C628.931,157.261 628.854,157.45 628.74,157.754 C628.807,157.582 628.871,157.398 628.934,157.218 L628.934,157.218 Z" id="Shape"></path>
            </g>
        </g>
    </g>
</svg>
